<?xml version="1.0" standalone="no"?>
<!DOCTYPE svg PUBLIC "-//W3C//DTD SVG 20010904//EN"
 "http://www.w3.org/TR/2001/REC-SVG-20010904/DTD/svg10.dtd">
<svg version="1.0" xmlns="http://www.w3.org/2000/svg"
 width="700.000000pt" height="700.000000pt" viewBox="0 0 700.000000 700.000000"
 preserveAspectRatio="xMidYMid meet">
<metadata>
Created by potrace 1.11, written by Peter Selinger 2001-2013
</metadata>
<g transform="translate(0.000000,700.000000) scale(0.100000,-0.100000)"
fill="#000000" stroke="none">
<path d="M0 6125 l0 -875 3500 0 3500 0 0 875 0 875 -3500 0 -3500 0 0 -875z"/>
<path d="M4 4365 c-2 -5 -3 -399 -2 -875 l3 -865 3498 0 3497 0 -2 875 -3 875
-3494 0 c-2323 0 -3495 -3 -3497 -10z"/>
<path d="M0 875 l0 -875 3500 0 3500 0 0 875 0 875 -3500 0 -3500 0 0 -875z"/>
</g>
</svg>
